<svg width="46" height="45" viewBox="0 0 46 45" fill="none" xmlns="http://www.w3.org/2000/svg">
<rect x="0.5" width="45" height="45" rx="15" fill="white"/>
<g clip-path="url(#clip0_4_17388)">
<path d="M32.7431 22.07C32.6931 21.56 32.2631 21.18 31.7531 21.18H24.2031C23.6531 21.18 23.2031 21.63 23.2031 22.18V23.89C23.2031 24.44 23.6531 24.89 24.2031 24.89H28.7131C28.6031 25.81 28.0031 27.2 26.6731 28.13C25.8231 28.72 24.6931 29.13 23.2031 29.13C23.1331 29.13 23.0731 29.13 23.0031 29.12C20.4531 29.04 18.2931 27.33 17.5131 24.98C17.3031 24.35 17.1831 23.69 17.1831 23C17.1831 22.31 17.3031 21.64 17.5031 21.02C17.5631 20.84 17.6331 20.66 17.7131 20.48C18.6331 18.41 20.6431 16.95 23.0031 16.88C23.0631 16.87 23.1331 16.87 23.2031 16.87C24.6331 16.87 25.7031 17.34 26.4531 17.86C26.8431 18.13 27.3631 18.07 27.7031 17.74L29.0931 16.38C29.5331 15.95 29.4931 15.22 28.9931 14.86C27.4031 13.69 25.4631 13 23.2031 13C23.1331 13 23.0731 13 23.0031 13.01C19.1731 13.08 15.8831 15.3 14.2731 18.51C13.5931 19.87 13.2031 21.39 13.2031 23C13.2031 24.61 13.5931 26.13 14.2731 27.49H14.2831C15.8931 30.7 19.1831 32.92 23.0031 32.99C23.0731 33 23.1331 33 23.2031 33C25.9031 33 28.1731 32.11 29.8231 30.58C31.7131 28.83 32.8031 26.27 32.8031 23.22C32.8031 22.79 32.7831 22.42 32.7431 22.07Z" fill="white"/>
</g>
<defs>
<clipPath id="clip0_4_17388">
<rect width="24" height="24" fill="white" transform="translate(11.5 11)"/>
</clipPath>
</defs>
</svg>
