<svg width="10" height="16" viewBox="0 0 10 16" fill="none" xmlns="http://www.w3.org/2000/svg">
<g opacity="0.4">
<path d="M0.28125 7.28125C0.09375 7.48958 0 7.72917 0 8C0 8.27083 0.09375 8.51042 0.28125 8.71875L6.28125 14.7188C6.48958 14.9062 6.72917 15 7 15C7.27083 15 7.51042 14.9062 7.71875 14.7188C7.90625 14.5104 8 14.2708 8 14C8 13.7292 7.90625 13.4896 7.71875 13.2812L2.40625 8L7.71875 2.71875C7.90625 2.51042 8 2.27083 8 2C8 1.72917 7.90625 1.48958 7.71875 1.28125C7.51042 1.09375 7.27083 1 7 1C6.72917 1 6.48958 1.09375 6.28125 1.28125L0.28125 7.28125Z" fill="#606060"/>
</g>
</svg>
