<svg width="16" height="16" viewBox="0 0 16 16" fill="none" xmlns="http://www.w3.org/2000/svg">
<path d="M12.6641 7.33332H8.66406V3.33332C8.66406 3.15651 8.59382 2.98694 8.4688 2.86192C8.34378 2.73689 8.17421 2.66666 7.9974 2.66666C7.82058 2.66666 7.65102 2.73689 7.52599 2.86192C7.40097 2.98694 7.33073 3.15651 7.33073 3.33332V7.33332H3.33073C3.15392 7.33332 2.98435 7.40356 2.85932 7.52859C2.7343 7.65361 2.66406 7.82318 2.66406 7.99999C2.66406 8.1768 2.7343 8.34637 2.85932 8.47139C2.98435 8.59642 3.15392 8.66666 3.33073 8.66666H7.33073V12.6667C7.33073 12.8435 7.40097 13.013 7.52599 13.1381C7.65102 13.2631 7.82058 13.3333 7.9974 13.3333C8.17421 13.3333 8.34378 13.2631 8.4688 13.1381C8.59382 13.013 8.66406 12.8435 8.66406 12.6667V8.66666H12.6641C12.8409 8.66666 13.0104 8.59642 13.1355 8.47139C13.2605 8.34637 13.3307 8.1768 13.3307 7.99999C13.3307 7.82318 13.2605 7.65361 13.1355 7.52859C13.0104 7.40356 12.8409 7.33332 12.6641 7.33332Z" fill="#645552"/>
</svg>
