<svg width="27" height="26" viewBox="0 0 27 26" fill="none" xmlns="http://www.w3.org/2000/svg">
<path d="M20.1836 6.31641H18C18 3.92969 16.0703 2 13.6836 2C11.2969 2 9.36719 3.92969 9.36719 6.31641H7.18359C6.01562 6.31641 5 7.28125 5 8.5V21.5C5 22.668 6.01562 23.6328 7.18359 23.6328H20.1836C21.3516 23.6328 22.3672 22.668 22.3672 21.5V8.5C22.3672 7.28125 21.3516 6.31641 20.1836 6.31641ZM13.6836 4.13281C14.8516 4.13281 15.8672 5.14844 15.8672 6.31641H11.5C11.5 5.14844 12.5156 4.13281 13.6836 4.13281ZM20.1836 21.5H7.18359V8.5H9.36719V10.6328C9.36719 11.2422 9.82422 11.75 10.4336 11.75C11.043 11.75 11.5 11.2422 11.5 10.6328V8.5H15.8672V10.6328C15.8672 11.2422 16.3242 11.75 16.9336 11.75C17.543 11.75 18 11.2422 18 10.6328V8.5H20.1836V21.5Z" fill="#1C1C1C"/>
</svg>
