<svg width="11" height="16" viewBox="0 0 11 16" fill="none" xmlns="http://www.w3.org/2000/svg">
<g clip-path="url(#clip0_12005_6478)">
<path d="M10.6875 7.28125C10.875 7.48958 10.9688 7.72917 10.9688 8C10.9688 8.27083 10.875 8.51042 10.6875 8.71875L4.6875 14.7188C4.47917 14.9062 4.23958 15 3.96875 15C3.69792 15 3.45833 14.9062 3.25 14.7188C3.0625 14.5104 2.96875 14.2708 2.96875 14C2.96875 13.7292 3.0625 13.4896 3.25 13.2812L8.5625 8L3.25 2.71875C3.0625 2.51042 2.96875 2.27083 2.96875 2C2.96875 1.72917 3.0625 1.48958 3.25 1.28125C3.45833 1.09375 3.69792 1 3.96875 1C4.23958 1 4.47917 1.09375 4.6875 1.28125L10.6875 7.28125Z" fill="#606060"/>
</g>
<defs>
<clipPath id="clip0_12005_6478">
<rect width="10" height="16" fill="white" transform="matrix(1 0 0 -1 0.96875 16)"/>
</clipPath>
</defs>
</svg>
