<svg width="131" height="25" viewBox="0 0 131 25" fill="none" xmlns="http://www.w3.org/2000/svg">
<path d="M0.46875 24.9007H24.4757V0.919922H0.46875V24.9007Z" fill="#00B67A"/>
<path d="M20.9322 11.1227L7.31578 21.0034L9.30268 14.8968L4.10156 11.1227H10.5304L12.5169 5.01562L14.5034 11.1227H20.9322ZM12.5174 17.2298L16.2361 16.4484L17.7177 21.0034L12.5174 17.2298Z" fill="white"/>
<path d="M27 24.9007H51.0069V0.919922H27V24.9007Z" fill="#00B67A"/>
<path d="M27 24.9007H39.0035V0.919922H27V24.9007Z" fill="#00B67A"/>
<path d="M39.2878 17.1363L42.4766 16.4479L43.9514 21.1064L38.9507 17.3782L33.7549 21.1064L35.7715 14.9776L30.4922 11.1898H37.0176L39.0334 5.06055L41.05 11.1898H47.5751L39.2878 17.1363Z" fill="white"/>
<path d="M53.5469 24.9007H77.5538V0.919922H53.5469V24.9007Z" fill="#00B67A"/>
<path d="M53.5469 24.9007H65.5503V0.919922H53.5469V24.9007Z" fill="#00B67A"/>
<path d="M74.0104 11.1227L60.3939 21.0034L62.3808 14.8968L57.1797 11.1227H63.6085L65.595 5.01562L67.5815 11.1227L74.0104 11.1227ZM65.5955 17.2298L69.3142 16.4484L70.7958 21.0034L65.5955 17.2298Z" fill="white"/>
<path d="M80.0938 24.9007H104.101V0.919922H80.0938V24.9007Z" fill="#00B67A"/>
<path d="M80.0938 24.9007H92.0972V0.919922H80.0938V24.9007Z" fill="#00B67A"/>
<path d="M100.557 11.1227L86.9412 21.0034L88.9277 14.8968L83.7266 11.1227H90.1554L92.1419 5.01562L94.1284 11.1227L100.557 11.1227ZM92.1424 17.2298L95.8611 16.4484L97.3427 21.0034L92.1424 17.2298Z" fill="white"/>
<path d="M106.625 24.9007H130.632V0.919922H106.625V24.9007Z" fill="#DCDCE6"/>
<path d="M106.625 24.9007H118.628V0.919922H106.625V24.9007Z" fill="#00B67A"/>
<path d="M127.088 11.1227L113.472 21.0034L115.459 14.8968L110.258 11.1227H116.687L118.673 5.01562L120.66 11.1227H127.088ZM118.674 17.2298L122.392 16.4484L123.874 21.0034L118.674 17.2298Z" fill="white"/>
</svg>
