<svg width="81" height="20" viewBox="0 0 81 20" fill="none" xmlns="http://www.w3.org/2000/svg">
<path d="M21.4914 7.01465H29.578V8.51477H26.3984V16.9477H24.6499V8.51477H21.4844V7.01465H21.4914ZM29.2326 9.75552H30.7272V11.1435H30.7554C30.8048 10.9472 30.8964 10.7579 31.0304 10.5757C31.1643 10.3934 31.3265 10.2182 31.5168 10.071C31.7072 9.91675 31.9187 9.79758 32.1514 9.69944C32.384 9.60831 32.6237 9.55925 32.8634 9.55925C33.0467 9.55925 33.1807 9.56626 33.2512 9.57327C33.3217 9.58028 33.3922 9.5943 33.4697 9.6013V11.1295C33.3569 11.1084 33.2441 11.0944 33.1243 11.0804C33.0044 11.0664 32.8916 11.0594 32.7788 11.0594C32.5109 11.0594 32.2571 11.1154 32.0174 11.2206C31.7777 11.3257 31.5732 11.487 31.397 11.6903C31.2207 11.9006 31.0797 12.1529 30.974 12.4613C30.8682 12.7698 30.8189 13.1203 30.8189 13.5198V16.9407H29.2255V9.75552L29.2326 9.75552ZM40.7949 16.9477H39.2298V15.9453H39.2016C39.0042 16.3098 38.7151 16.5972 38.3274 16.8145C37.9396 17.0318 37.5448 17.144 37.1429 17.144C36.1911 17.144 35.5002 16.9126 35.0772 16.443C34.6542 15.9733 34.4427 15.2653 34.4427 14.319V9.75552H36.036V14.1648C36.036 14.7956 36.1559 15.2443 36.4026 15.5036C36.6423 15.763 36.9878 15.8962 37.4249 15.8962C37.7633 15.8962 38.0383 15.8471 38.2639 15.742C38.4895 15.6368 38.6728 15.5036 38.8068 15.3284C38.9478 15.1602 39.0465 14.9499 39.1099 14.7115C39.1734 14.4732 39.2016 14.2138 39.2016 13.9334V9.76253H40.7949V16.9477ZM43.5093 14.6414C43.5586 15.1041 43.7349 15.4265 44.038 15.6158C44.3482 15.7981 44.7148 15.8962 45.1449 15.8962C45.293 15.8962 45.4622 15.8822 45.6525 15.8612C45.8429 15.8401 46.0262 15.7911 46.1883 15.728C46.3575 15.6649 46.4915 15.5667 46.6043 15.4406C46.7101 15.3144 46.7594 15.1532 46.7524 14.9499C46.7453 14.7466 46.6678 14.5783 46.5268 14.4522C46.3858 14.319 46.2095 14.2208 45.9909 14.1367C45.7724 14.0596 45.5256 13.9895 45.2436 13.9334C44.9616 13.8773 44.6796 13.8143 44.3905 13.7512C44.0944 13.6881 43.8054 13.604 43.5304 13.5128C43.2555 13.4217 43.0087 13.2955 42.7901 13.1343C42.5716 12.9801 42.3953 12.7768 42.2684 12.5314C42.1345 12.2861 42.071 11.9847 42.071 11.6202C42.071 11.2276 42.1697 10.9051 42.3601 10.6388C42.5504 10.3724 42.7972 10.1621 43.0863 10.0009C43.3824 9.83964 43.7067 9.72748 44.0662 9.65738C44.4258 9.5943 44.7712 9.55925 45.0956 9.55925C45.4692 9.55925 45.8288 9.60131 46.1672 9.67841C46.5056 9.75552 46.8158 9.8817 47.0908 10.064C47.3657 10.2392 47.5913 10.4705 47.7746 10.7509C47.9579 11.0313 48.0708 11.3748 48.1201 11.7744H46.4563C46.3787 11.3958 46.2095 11.1365 45.9345 11.0103C45.6596 10.8771 45.3423 10.814 44.9898 10.814C44.877 10.814 44.743 10.821 44.5879 10.8421C44.4328 10.8631 44.2918 10.8981 44.1508 10.9472C44.0169 10.9963 43.9041 11.0734 43.8054 11.1715C43.7137 11.2697 43.6644 11.3958 43.6644 11.5571C43.6644 11.7533 43.7349 11.9076 43.8688 12.0267C44.0028 12.1459 44.179 12.244 44.3976 12.3282C44.6161 12.4053 44.8629 12.4754 45.1449 12.5314C45.4269 12.5875 45.716 12.6506 46.0121 12.7137C46.3011 12.7768 46.5832 12.8609 46.8652 12.952C47.1472 13.0432 47.3939 13.1693 47.6125 13.3306C47.831 13.4918 48.0073 13.6881 48.1413 13.9264C48.2752 14.1648 48.3457 14.4662 48.3457 14.8167C48.3457 15.2443 48.247 15.6018 48.0496 15.9032C47.8522 16.1976 47.5984 16.443 47.2882 16.6252C46.978 16.8075 46.6255 16.9477 46.2447 17.0318C45.864 17.1159 45.4833 17.158 45.1097 17.158C44.6514 17.158 44.2284 17.1089 43.8406 17.0038C43.4529 16.8986 43.1145 16.7444 42.8324 16.5411C42.5504 16.3308 42.3248 16.0715 42.1627 15.763C42.0005 15.4546 41.9159 15.0831 41.9018 14.6554H43.5093V14.6414ZM48.7687 9.75552H49.9743V7.59647H51.5677V9.75552H53.0059V10.9402H51.5677V14.7816C51.5677 14.9499 51.5747 15.0901 51.5888 15.2162C51.6029 15.3354 51.6382 15.4406 51.6875 15.5247C51.7369 15.6088 51.8144 15.6719 51.9202 15.7139C52.0259 15.756 52.1599 15.777 52.3432 15.777C52.456 15.777 52.5688 15.777 52.6816 15.77C52.7944 15.763 52.9072 15.749 53.02 15.721V16.9477C52.8438 16.9687 52.6675 16.9827 52.5053 17.0038C52.3361 17.0248 52.1669 17.0318 51.9907 17.0318C51.5677 17.0318 51.2292 16.9897 50.9754 16.9126C50.7216 16.8355 50.5172 16.7164 50.3762 16.5621C50.2281 16.4079 50.1365 16.2187 50.0801 15.9873C50.0307 15.756 49.9955 15.4896 49.9884 15.1952V10.9542H48.7828V9.75552H48.7687ZM54.1339 9.75552H55.6427V10.7299H55.6709C55.8965 10.3093 56.2067 10.0149 56.6086 9.83263C57.0104 9.65037 57.4405 9.55925 57.9129 9.55925C58.4839 9.55925 58.9774 9.65738 59.4005 9.86067C59.8235 10.0569 60.176 10.3303 60.458 10.6808C60.74 11.0313 60.9445 11.4379 61.0855 11.9006C61.2265 12.3632 61.297 12.8609 61.297 13.3867C61.297 13.8703 61.2335 14.34 61.1066 14.7886C60.9797 15.2443 60.7893 15.6438 60.5355 15.9943C60.2817 16.3448 59.9574 16.6182 59.5626 16.8285C59.1678 17.0388 58.7095 17.144 58.1737 17.144C57.9411 17.144 57.7084 17.1229 57.4757 17.0809C57.2431 17.0388 57.0175 16.9687 56.806 16.8776C56.5945 16.7865 56.39 16.6673 56.2138 16.5201C56.0304 16.3729 55.8824 16.2046 55.7555 16.0154H55.7273V19.6044H54.1339V9.75552ZM59.7036 13.3586C59.7036 13.0362 59.6613 12.7207 59.5767 12.4123C59.4921 12.1038 59.3652 11.8375 59.196 11.5991C59.0268 11.3608 58.8153 11.1715 58.5685 11.0313C58.3147 10.8911 58.0257 10.814 57.7014 10.814C57.0316 10.814 56.524 11.0453 56.1856 11.508C55.8471 11.9707 55.6779 12.5875 55.6779 13.3586C55.6779 13.7231 55.7202 14.0596 55.8119 14.368C55.9035 14.6765 56.0304 14.9429 56.2138 15.1672C56.39 15.3915 56.6015 15.5667 56.8483 15.6929C57.095 15.8261 57.3841 15.8892 57.7084 15.8892C58.075 15.8892 58.3782 15.8121 58.632 15.6649C58.8858 15.5177 59.0902 15.3214 59.2524 15.0901C59.4146 14.8517 59.5344 14.5854 59.6049 14.2839C59.6684 13.9825 59.7036 13.6741 59.7036 13.3586ZM62.5167 7.01465H64.11V8.51477H62.5167V7.01465ZM62.5167 9.75552H64.11V16.9477H62.5167V9.75552ZM65.5342 7.01465H67.1275V16.9477H65.5342V7.01465ZM72.0133 17.144C71.4352 17.144 70.9205 17.0458 70.4693 16.8566C70.0181 16.6673 69.6374 16.4009 69.3201 16.0715C69.0099 15.735 68.7702 15.3354 68.608 14.8728C68.4459 14.4101 68.3613 13.8984 68.3613 13.3446C68.3613 12.7978 68.4459 12.2931 68.608 11.8305C68.7702 11.3678 69.0099 10.9682 69.3201 10.6318C69.6303 10.2953 70.0181 10.0359 70.4693 9.84665C70.9205 9.65738 71.4352 9.55925 72.0133 9.55925C72.5914 9.55925 73.1061 9.65738 73.5573 9.84665C74.0085 10.0359 74.3892 10.3023 74.7065 10.6318C75.0167 10.9682 75.2564 11.3678 75.4186 11.8305C75.5807 12.2931 75.6653 12.7978 75.6653 13.3446C75.6653 13.8984 75.5807 14.4101 75.4186 14.8728C75.2564 15.3354 75.0167 15.735 74.7065 16.0715C74.3963 16.4079 74.0085 16.6673 73.5573 16.8566C73.1061 17.0458 72.5914 17.144 72.0133 17.144ZM72.0133 15.8892C72.3658 15.8892 72.676 15.8121 72.9369 15.6649C73.1977 15.5177 73.4092 15.3214 73.5784 15.0831C73.7477 14.8447 73.8675 14.5713 73.9521 14.2699C74.0297 13.9685 74.072 13.66 74.072 13.3446C74.072 13.0362 74.0297 12.7347 73.9521 12.4263C73.8746 12.1179 73.7477 11.8515 73.5784 11.6131C73.4092 11.3748 73.1977 11.1855 72.9369 11.0383C72.676 10.8911 72.3658 10.814 72.0133 10.814C71.6608 10.814 71.3506 10.8911 71.0897 11.0383C70.8289 11.1855 70.6174 11.3818 70.4481 11.6131C70.2789 11.8515 70.1591 12.1179 70.0745 12.4263C69.9969 12.7347 69.9546 13.0362 69.9546 13.3446C69.9546 13.66 69.9969 13.9685 70.0745 14.2699C70.152 14.5713 70.2789 14.8447 70.4481 15.0831C70.6174 15.3214 70.8289 15.5177 71.0897 15.6649C71.3506 15.8191 71.6608 15.8892 72.0133 15.8892ZM76.1306 9.75552H77.3362V7.59647H78.9296V9.75552H80.3678V10.9402H78.9296V14.7816C78.9296 14.9499 78.9366 15.0901 78.9507 15.2162C78.9648 15.3354 79.0001 15.4406 79.0494 15.5247C79.0988 15.6088 79.1763 15.6719 79.2821 15.7139C79.3878 15.756 79.5218 15.777 79.7051 15.777C79.8179 15.777 79.9307 15.777 80.0435 15.77C80.1563 15.763 80.2691 15.749 80.3819 15.721V16.9477C80.2057 16.9687 80.0294 16.9827 79.8672 17.0038C79.698 17.0248 79.5288 17.0318 79.3526 17.0318C78.9296 17.0318 78.5912 16.9897 78.3373 16.9126C78.0835 16.8355 77.8791 16.7164 77.7381 16.5621C77.59 16.4079 77.4984 16.2187 77.442 15.9873C77.3926 15.756 77.3574 15.4896 77.3503 15.1952V10.9542H76.1447V9.75552L76.1306 9.75552Z" fill="#1C1C1C"/>
<path d="M19.6351 7.01431H12.331L10.075 0.102539L7.81184 7.01431L0.507812 7.0073L6.42295 11.2833L4.15983 18.1881L10.075 13.9191L15.983 18.1881L13.727 11.2833L19.6351 7.01431Z" fill="#00B67A"/>
<path d="M14.2299 12.8466L13.7223 11.2832L10.0703 13.9192L14.2299 12.8466Z" fill="#005128"/>
</svg>
