<svg width="21" height="22" viewBox="0 0 21 22" fill="none" xmlns="http://www.w3.org/2000/svg">
<path d="M10.8477 3.38281C12.3125 3.38281 13.4844 4.55469 13.4844 6.01953C13.4844 7.42578 12.3125 8.59766 10.8477 8.59766C9.38281 8.59766 8.21094 7.42578 8.21094 6.01953C8.21094 4.55469 9.38281 3.38281 10.8477 3.38281ZM10.8477 14.6328C14.5391 14.6328 18.4648 16.4492 18.4648 17.2695V18.6172H3.23047V17.2695C3.23047 16.4492 7.15625 14.6328 10.8477 14.6328ZM10.8477 0.980469C8.09375 0.980469 5.86719 3.26562 5.86719 6.01953C5.86719 8.77344 8.09375 11 10.8477 11C13.6016 11 15.8281 8.77344 15.8281 6.01953C15.8281 3.26562 13.6016 0.980469 10.8477 0.980469ZM10.8477 12.2305C7.50781 12.2305 0.828125 13.9297 0.828125 17.2695V21.0195H20.8672V17.2695C20.8672 13.9297 14.1875 12.2305 10.8477 12.2305Z" fill="#1C1C1C"/>
</svg>
