<svg width="35" height="36" viewBox="0 0 35 36" fill="none" xmlns="http://www.w3.org/2000/svg">
<path fill-rule="evenodd" clip-rule="evenodd" d="M14.7722 1.19768C14.485 2.65349 13.8646 4.6598 13.6023 4.98C13.5066 5.09705 13.0914 5.23805 12.6796 5.29335C12.1973 5.35796 11.7602 5.57801 11.4507 5.91227C11.1094 6.28054 10.9479 6.35485 10.8935 6.169C10.8513 6.02515 10.7166 5.53868 10.5938 5.08793C10.4713 4.63719 10.0669 3.9318 9.695 3.5202C8.79522 2.52427 7.97905 2.48778 7.06407 3.40276C6.11165 4.35518 5.76675 5.77602 5.87126 8.31555L5.9562 10.373L4.70677 10.3741C3.14588 10.3755 2.20791 10.6297 1.46794 11.2522C0.773006 11.837 0.694905 12.7316 1.27449 13.4683C1.70813 14.0196 3.13847 14.5572 4.2946 14.6034C4.72254 14.6205 5.07257 14.6878 5.07257 14.7531C5.07257 14.9416 1.60115 16.6257 0.94004 16.7577C0.479223 16.8499 0.315229 17.0021 0.222875 17.4224C0.0503298 18.2082 0.0839649 18.2643 0.697755 18.212C1.25359 18.1649 3.99398 17.0342 4.88255 16.4854C5.14383 16.3241 4.48121 17.0937 3.40983 18.1957C0.977096 20.6983 0.93909 20.8918 2.55471 22.5623C3.66143 23.7065 3.98904 23.8513 4.93005 23.6111L5.45263 23.4777V29.2697C5.45263 35.0163 5.45605 35.0648 5.87639 35.4566C6.10956 35.6737 6.47289 35.8941 6.68401 35.9462C6.89513 35.9984 10.9454 36.0165 15.6847 35.9864L24.3017 35.9317L24.7575 35.3616L25.2136 34.7915L25.2146 29.0709L25.2155 23.3504L24.7566 22.8551C24.5042 22.5828 24.0982 22.3111 23.854 22.251C23.61 22.1912 19.669 22.1663 15.0965 22.1959C10.5239 22.2256 6.78282 22.2085 6.78282 22.1583C6.78282 22.108 9.733 19.1122 13.3388 15.5011C19.8012 9.02891 19.8947 8.92421 19.8947 8.16277C19.8947 7.46727 19.7826 7.28332 18.7686 6.31627C17.0305 4.65847 16.8514 4.72688 13.1643 8.45712C11.7097 9.92889 10.4956 11.1331 10.4667 11.1331C10.3504 11.1331 11.1335 9.06958 11.596 8.15688C12.2172 6.93101 12.6152 6.52815 13.0642 6.67086C13.65 6.85671 14.5063 6.26192 14.9388 5.36841C15.3497 4.52013 16.2842 1.11502 16.2842 0.467216C16.2842 0.243174 16.1493 0.111484 15.9197 0.111484C15.7193 0.111484 15.4361 0.0658781 15.2907 0.0100099C15.0941 -0.0654311 14.9612 0.238803 14.7722 1.19768ZM29.6624 3.4174L29.3319 4.46559L28.1763 4.52146C27.0926 4.57372 27.0172 4.60754 26.9638 5.06722C26.9184 5.45791 27.0668 5.66827 27.695 6.10363C28.4371 6.61803 28.4753 6.68929 28.3472 7.3238C28.2723 7.69435 28.1999 8.25417 28.186 8.56772C28.1513 9.35994 28.7242 9.40289 29.7186 8.68268L30.5004 8.1164L31.2308 8.66919C32.0253 9.27063 32.7665 9.39472 32.9352 8.95481C32.9939 8.80202 32.8978 8.24315 32.7218 7.71316C32.4029 6.75314 32.4033 6.7482 32.8466 6.39836C34.2205 5.31463 34.2494 5.27853 34.0324 4.92166C33.8829 4.67557 33.511 4.54996 32.7319 4.48212L31.6407 4.38711L31.3146 3.43697C31.0467 2.65615 30.9 2.47638 30.4907 2.42792C30.0386 2.37452 29.9624 2.46555 29.6624 3.4174ZM7.73562 4.71339C6.68724 6.43732 7.18815 11.2281 8.41668 11.2281C9.11371 11.2281 9.53823 9.93269 9.53765 7.80761C9.53727 6.20111 9.46849 5.76785 9.09318 5.0047C8.849 4.50835 8.52728 4.10207 8.3783 4.10207C8.22931 4.10207 7.94009 4.37723 7.73562 4.71339ZM30.2237 4.7246C30.0671 5.27416 29.9674 5.34314 29.2563 5.39521L28.4635 5.45316L29.0545 5.98125C29.5998 6.46848 29.6291 6.5557 29.4356 7.11097C29.2137 7.74775 29.3811 7.90357 29.7762 7.42755C30.0819 7.05928 30.6216 7.06517 31.1987 7.44332L31.6576 7.74395L31.5419 7.03134C31.4403 6.40387 31.4925 6.26553 31.979 5.87636L32.5316 5.43416L31.857 5.43321C31.1191 5.43226 30.7263 5.15843 30.7263 4.64536C30.7263 4.04791 30.4021 4.09903 30.2237 4.7246ZM14.1439 9.37761C12.6038 10.9205 11.3463 12.2674 11.3498 12.3706C11.3532 12.4737 11.6958 12.8986 12.1112 13.3146L12.8664 14.0711L15.7155 11.2268C17.2824 9.66247 18.5645 8.2918 18.5645 8.18101C18.5645 7.98775 17.2178 6.57243 17.0339 6.57243C16.9848 6.57243 15.6843 7.83478 14.1439 9.37761ZM2.83975 11.9865C2.04657 12.3312 2.05835 12.6043 2.88117 12.948C4.19788 13.4982 7.53647 13.109 7.31072 12.4316C7.09314 11.779 4.02077 11.4732 2.83975 11.9865ZM19.7047 12.9384C19.5035 13.5482 19.4233 13.6035 18.7397 13.6035C17.8436 13.6035 17.736 14.0105 18.4781 14.5943C18.9093 14.9335 18.9482 15.0651 18.8367 15.8093C18.6911 16.78 18.9473 16.9004 19.7741 16.25L20.2748 15.8562L20.7755 16.25C21.605 16.9025 21.8587 16.7805 21.7116 15.7998C21.5966 15.0327 21.6301 14.9259 22.0787 14.6321C22.7814 14.1716 22.619 13.7192 21.7093 13.6035C21.0566 13.5204 20.9422 13.4305 20.8031 12.8908C20.5807 12.0277 19.997 12.053 19.7047 12.9384ZM9.82327 13.6985L8.98411 14.5536L9.82365 15.4091L10.6632 16.2646L11.4784 15.4646C11.9269 15.0245 12.2936 14.5931 12.2936 14.5057C12.2936 14.3162 10.9547 12.8433 10.7825 12.8433C10.7164 12.8433 10.2848 13.2281 9.82327 13.6985ZM20.0297 13.7935C19.9675 14.0314 19.7705 14.1735 19.5031 14.1735C19.093 14.1735 19.0892 14.1884 19.4073 14.5399C19.6241 14.7795 19.6945 15.0469 19.6103 15.312C19.4925 15.6833 19.5151 15.6968 19.8782 15.4701C20.1992 15.2696 20.3481 15.2681 20.6596 15.4627C21.0148 15.6844 21.0353 15.666 20.9245 15.225C20.8388 14.8833 20.8914 14.7138 21.1098 14.63C21.5457 14.4628 21.487 14.1735 21.017 14.1735C20.7791 14.1735 20.5794 14.0209 20.5199 13.7935C20.4652 13.5844 20.355 13.4134 20.2748 13.4134C20.1946 13.4134 20.0844 13.5844 20.0297 13.7935ZM5.55087 17.9709L2.70863 20.8179L3.45411 21.5814C3.86419 22.0012 4.29023 22.3447 4.40083 22.3447C4.51161 22.3447 5.88228 21.0626 7.44659 19.4956L10.2909 16.6466L9.53442 15.8914C9.11845 15.476 8.69146 15.1334 8.58562 15.1299C8.47996 15.1265 7.11423 16.4048 5.55087 17.9709ZM28.5374 15.7681C28.3827 16.1386 28.256 16.5299 28.256 16.6378C28.256 16.7459 27.8387 16.8339 27.3262 16.8339C26.0416 16.8339 25.8761 17.2771 26.8534 18.0987C27.5637 18.696 27.5656 18.7019 27.3324 19.4804C27.2036 19.9105 27.15 20.346 27.2133 20.4484C27.3997 20.75 27.9791 20.6624 28.4979 20.2544C29.0906 19.7881 29.1801 19.7881 29.7762 20.2544C30.0375 20.4589 30.4548 20.628 30.7037 20.6303C31.1109 20.6341 31.145 20.5729 31.0437 20.0169C30.9817 19.6773 30.8766 19.2131 30.8101 18.9856C30.7134 18.6548 30.8267 18.4836 31.3758 18.1305C31.8437 17.8297 32.0464 17.568 32.012 17.309C31.9702 16.9947 31.7956 16.9192 31.0026 16.8729C30.0627 16.818 30.038 16.8009 29.7674 16.0198C29.4032 14.9688 28.9133 14.8685 28.5374 15.7681ZM28.8897 17.0095C28.7217 17.4547 28.5518 17.594 28.1775 17.594C27.5909 17.594 27.5462 17.7955 28.0614 18.1172C28.3595 18.3034 28.4124 18.4794 28.3175 18.9706L28.198 19.5893L28.6147 19.2203C29.0147 18.8663 29.0539 18.8648 29.5909 19.1819L30.1503 19.5124L30.0295 18.9083C29.9305 18.4132 29.9911 18.2407 30.3651 17.9534L30.8213 17.6024L30.2043 17.5982C29.6954 17.5948 29.5455 17.4914 29.3488 17.0095L29.1103 16.425L28.8897 17.0095ZM13.4832 18.3775C13.3268 18.7914 13.1708 18.9368 12.9665 18.8585C12.5927 18.715 12.1036 18.8995 12.1036 19.1838C12.1036 19.3043 12.283 19.515 12.5023 19.6518C12.8265 19.8544 12.8787 20.0199 12.7816 20.5379C12.6397 21.2937 12.9302 21.5652 13.4133 21.1282C13.8422 20.7399 14.1702 20.7441 14.611 21.143C15.1019 21.5873 15.4145 21.2505 15.152 20.5606C14.9804 20.1094 15.0215 19.9865 15.4775 19.5829C15.9184 19.1925 15.9551 19.0918 15.7141 18.932C15.5574 18.8279 15.2748 18.791 15.0861 18.8497C14.8307 18.9292 14.6866 18.807 14.5219 18.3703C14.2376 17.6174 13.7688 17.6206 13.4832 18.3775ZM13.8139 19.0192C13.8139 19.1863 13.6407 19.3043 13.3958 19.3043C13.0707 19.3043 13.0285 19.355 13.2058 19.5323C13.3312 19.6577 13.434 19.8928 13.4342 20.0549C13.4346 20.2508 13.6253 20.3563 14.0043 20.3696C14.416 20.3842 14.574 20.3027 14.574 20.075C14.574 19.9019 14.6766 19.6577 14.802 19.5323C14.9793 19.355 14.9371 19.3043 14.612 19.3043C14.367 19.3043 14.1939 19.1863 14.1939 19.0192C14.1939 18.8625 14.1084 18.7342 14.0039 18.7342C13.8994 18.7342 13.8139 18.8625 13.8139 19.0192ZM9.29784 23.6329L6.77693 23.6859L6.82748 29.1437L6.87784 34.6015L9.96579 34.6538L13.0537 34.706V29.2855C13.0537 26.3041 13.0323 23.8026 13.0062 23.7266C12.9515 23.5672 12.7109 23.5611 9.29784 23.6329ZM14.3839 29.1251V34.6965H15.3369H16.2899L16.2396 29.1561L16.1892 23.6154L15.2866 23.5845L14.3839 23.5537V29.1251ZM17.4242 29.1428L17.4244 34.7057L20.6073 34.6536L23.7903 34.6015L23.8407 29.1382C23.888 24.0257 23.8695 23.6747 23.5556 23.6715C23.3711 23.6696 21.9161 23.6483 20.3221 23.624L17.4242 23.5799V29.1428Z" fill="black"/>
</svg>
